<svg xmlns="http://www.w3.org/2000/svg" width="76" height="77" fill="none">

<g stroke="rgba(37, 187, 197, 1)" stroke-linecap="round" stroke-linejoin="round" stroke-width="1.5" clip-path="url(#a)">
<path d="M45.125 31.128h-14.25v14.25h14.25v-14.25Z" style="rgba(37, 187, 197, 1);stroke-opacity:1"/>
<path d="M59.375 14.503h-42.75a2.375 2.375 0 0 0-2.375 2.375v42.75a2.375 2.375 0 0 0 2.375 2.375h42.75a2.375 2.375 0 0 0 2.375-2.375v-42.75a2.375 2.375 0 0 0-2.375-2.375Zm2.375 16.625h7.125m-7.125 14.25h7.125m-61.75-14.25h7.125m-7.125 14.25h7.125m30.875 16.625v7.125m-14.25-7.125v7.125m14.25-61.75v7.125m-14.25-7.125v7.125" style="stroke:currentclor;stroke-opacity:1"/></g><defs><clipPath id="a"><path fill="#fff" d="M0 0h76v76H0z" style="fill:#fff;fill-opacity:1" transform="translate(0 .253)"/>
</clipPath>
</defs>

</svg>