<svg width="76" height="77" viewBox="0 0 76 77" fill="none" xmlns="http://www.w3.org/2000/svg">
<g clip-path="url(#clip0_4012_870)">
<path d="M45.125 31.1277H30.875V45.3777H45.125V31.1277Z" stroke="#25BBC5" style="stroke:#25BBC5;stroke:color(display-p3 0.1451 0.7333 0.7725);stroke-opacity:1;" stroke-width="1.5" stroke-linecap="round" stroke-linejoin="round"/>
<path d="M59.375 14.5027H16.625C15.3133 14.5027 14.25 15.566 14.25 16.8777V59.6277C14.25 60.9394 15.3133 62.0027 16.625 62.0027H59.375C60.6867 62.0027 61.75 60.9394 61.75 59.6277V16.8777C61.75 15.566 60.6867 14.5027 59.375 14.5027Z" stroke="#25BBC5" style="stroke:#25BBC5;stroke:color(display-p3 0.1451 0.7333 0.7725);stroke-opacity:1;" stroke-width="1.5" stroke-linecap="round" stroke-linejoin="round"/>
<path d="M61.75 31.1277H68.875" stroke="#25BBC5" style="stroke:#25BBC5;stroke:color(display-p3 0.1451 0.7333 0.7725);stroke-opacity:1;" stroke-width="1.5" stroke-linecap="round" stroke-linejoin="round"/>
<path d="M61.75 45.3777H68.875" stroke="#25BBC5" style="stroke:#25BBC5;stroke:color(display-p3 0.1451 0.7333 0.7725);stroke-opacity:1;" stroke-width="1.5" stroke-linecap="round" stroke-linejoin="round"/>
<path d="M7.125 31.1277H14.25" stroke="#25BBC5" style="stroke:#25BBC5;stroke:color(display-p3 0.1451 0.7333 0.7725);stroke-opacity:1;" stroke-width="1.5" stroke-linecap="round" stroke-linejoin="round"/>
<path d="M7.125 45.3777H14.25" stroke="#25BBC5" style="stroke:#25BBC5;stroke:color(display-p3 0.1451 0.7333 0.7725);stroke-opacity:1;" stroke-width="1.5" stroke-linecap="round" stroke-linejoin="round"/>
<path d="M45.125 62.0027V69.1277" stroke="#25BBC5" style="stroke:#25BBC5;stroke:color(display-p3 0.1451 0.7333 0.7725);stroke-opacity:1;" stroke-width="1.5" stroke-linecap="round" stroke-linejoin="round"/>
<path d="M30.875 62.0027V69.1277" stroke="#25BBC5" style="stroke:#25BBC5;stroke:color(display-p3 0.1451 0.7333 0.7725);stroke-opacity:1;" stroke-width="1.5" stroke-linecap="round" stroke-linejoin="round"/>
<path d="M45.125 7.37769V14.5027" stroke="#25BBC5" style="stroke:#25BBC5;stroke:color(display-p3 0.1451 0.7333 0.7725);stroke-opacity:1;" stroke-width="1.5" stroke-linecap="round" stroke-linejoin="round"/>
<path d="M30.875 7.37769V14.5027" stroke="#25BBC5" style="stroke:#25BBC5;stroke:color(display-p3 0.1451 0.7333 0.7725);stroke-opacity:1;" stroke-width="1.5" stroke-linecap="round" stroke-linejoin="round"/>
</g>
<defs>
<clipPath id="clip0_4012_870">
<rect width="76" height="76" fill="white" style="fill:white;fill-opacity:1;" transform="translate(0 0.252686)"/>
</clipPath>
</defs>
</svg>
