<svg xmlns="http://www.w3.org/2000/svg" width="76" height="77" fill="none">

<g stroke="rgba(37, 187, 197, 1)" stroke-linecap="round" stroke-linejoin="round" stroke-width="1.5" clip-path="url(#a)">
<path d="M59.375 45.378 47.5 57.253l-19-4.75-16.625-11.875M21.577 21.221 38 16.878l16.423 4.343M10.204 18.19 2.627 33.348a2.375 2.375 0 0 0 1.06 3.186l8.188 4.094 9.702-19.407-8.185-4.091a2.376 2.376 0 0 0-3.188 1.06ZM64.125 40.628l8.188-4.094a2.375 2.375 0 0 0 1.06-3.186L65.796 18.19a2.375 2.375 0 0 0-3.188-1.06l-8.185 4.09 9.702 19.408Z" 
style="stroke:rgba(37, 187, 197, 1);stroke-opacity:1"/>
<path d="M54.625 21.628H42.75L29.195 34.776a2.375 2.375 0 0 0 .41 3.688c5.198 3.322 12.254 3.093 17.895-2.586l11.875 9.5 4.75-4.75M36.83 64.378 24.445 61.28l-7.82-5.587" 
style="stroke:rgba(37, 187, 197, 1);stroke-opacity:1"/></g><defs><clipPath id="a"><path fill="#fff" d="M0 0h76v76H0z" style="fill:#fff;fill-opacity:1" transform="translate(0 .253)"/></clipPath></defs>
</svg>