<svg width="76" height="77" viewBox="0 0 76 77" fill="none" xmlns="http://www.w3.org/2000/svg">
<g clip-path="url(#clip0_4012_882)">
<path d="M16.625 40.6277C21.6641 40.6277 26.4968 42.6295 30.06 46.1927C33.6232 49.7558 35.625 54.5886 35.625 59.6277" stroke="#25BBC5" style="stroke:#25BBC5;stroke:color(display-p3 0.1451 0.7333 0.7725);stroke-opacity:1;" stroke-width="1.5" stroke-linecap="round" stroke-linejoin="round"/>
<path d="M16.625 26.3777C25.4434 26.3777 33.9007 29.8808 40.1363 36.1164C46.3719 42.352 49.875 50.8092 49.875 59.6277" stroke="#25BBC5" style="stroke:#25BBC5;stroke:color(display-p3 0.1451 0.7333 0.7725);stroke-opacity:1;" stroke-width="1.5" stroke-linecap="round" stroke-linejoin="round"/>
<path d="M16.625 12.1277C22.8628 12.1277 29.0395 13.3563 34.8025 15.7434C40.5654 18.1305 45.8018 21.6293 50.2126 26.0401C54.6234 30.4509 58.1222 35.6873 60.5093 41.4502C62.8964 47.2132 64.125 53.3899 64.125 59.6277" stroke="#25BBC5" style="stroke:#25BBC5;stroke:color(display-p3 0.1451 0.7333 0.7725);stroke-opacity:1;" stroke-width="1.5" stroke-linecap="round" stroke-linejoin="round"/>
<path d="M17.8125 61.4089C19.4521 61.4089 20.7812 60.0798 20.7812 58.4402C20.7812 56.8006 19.4521 55.4714 17.8125 55.4714C16.1729 55.4714 14.8438 56.8006 14.8438 58.4402C14.8438 60.0798 16.1729 61.4089 17.8125 61.4089Z" fill="#25BBC5" style="fill:#25BBC5;fill:color(display-p3 0.1451 0.7333 0.7725);fill-opacity:1;"/>
</g>
<defs>
<clipPath id="clip0_4012_882">
<rect width="76" height="76" fill="white" style="fill:white;fill-opacity:1;" transform="translate(0 0.252686)"/>
</clipPath>
</defs>
</svg>
