<svg width="22" height="21" viewBox="0 0 22 21" fill="none" xmlns="http://www.w3.org/2000/svg">
<path d="M6.45008 0.25293H15.5501C19.0168 0.25293 21.8334 2.85293 21.8334 6.05293V14.4529C21.8334 15.9912 21.1714 17.4664 19.9931 18.5541C18.8147 19.6419 17.2165 20.2529 15.5501 20.2529H6.45008C2.98341 20.2529 0.166748 17.6529 0.166748 14.4529V6.05293C0.166748 4.51467 0.82874 3.03942 2.00709 1.95171C3.18545 0.863999 4.78364 0.25293 6.45008 0.25293ZM6.23341 2.25293C5.19907 2.25293 4.20709 2.63221 3.4757 3.30735C2.74431 3.98248 2.33341 4.89815 2.33341 5.85293V14.6529C2.33341 16.6429 4.07758 18.2529 6.23341 18.2529H15.7667C16.8011 18.2529 17.7931 17.8736 18.5245 17.1985C19.2559 16.5234 19.6667 15.6077 19.6667 14.6529V5.85293C19.6667 3.86293 17.9226 2.25293 15.7667 2.25293H6.23341ZM16.6876 3.75293C17.0467 3.75293 17.3912 3.88463 17.6451 4.11905C17.8991 4.35347 18.0417 4.67141 18.0417 5.00293C18.0417 5.33445 17.8991 5.65239 17.6451 5.88681C17.3912 6.12123 17.0467 6.25293 16.6876 6.25293C16.3284 6.25293 15.984 6.12123 15.73 5.88681C15.4761 5.65239 15.3334 5.33445 15.3334 5.00293C15.3334 4.67141 15.4761 4.35347 15.73 4.11905C15.984 3.88463 16.3284 3.75293 16.6876 3.75293ZM11.0001 5.25293C12.4367 5.25293 13.8144 5.77971 14.8302 6.7174C15.8461 7.65508 16.4167 8.92685 16.4167 10.2529C16.4167 11.579 15.8461 12.8508 14.8302 13.7885C13.8144 14.7261 12.4367 15.2529 11.0001 15.2529C9.56349 15.2529 8.18574 14.7261 7.16992 13.7885C6.1541 12.8508 5.58342 11.579 5.58342 10.2529C5.58342 8.92685 6.1541 7.65508 7.16992 6.7174C8.18574 5.77971 9.56349 5.25293 11.0001 5.25293ZM11.0001 7.25293C10.1381 7.25293 9.31148 7.569 8.70198 8.13161C8.09249 8.69422 7.75008 9.45728 7.75008 10.2529C7.75008 11.0486 8.09249 11.8116 8.70198 12.3743C9.31148 12.9369 10.1381 13.2529 11.0001 13.2529C11.862 13.2529 12.6887 12.9369 13.2982 12.3743C13.9077 11.8116 14.2501 11.0486 14.2501 10.2529C14.2501 9.45728 13.9077 8.69422 13.2982 8.13161C12.6887 7.569 11.862 7.25293 11.0001 7.25293Z" fill="#25BBC5" style="fill:#25BBC5;fill:color(display-p3 0.1451 0.7333 0.7725);fill-opacity:1;"/>
</svg>
