<svg width="22" height="17" viewBox="0 0 22 17" fill="none" xmlns="http://www.w3.org/2000/svg">
<path d="M11.0001 0.25293C11.9263 0.25293 12.8764 0.27493 13.7972 0.31093L14.8849 0.35893L15.926 0.41593L16.901 0.47693L17.7915 0.54093C18.7579 0.609207 19.6672 0.989877 20.3596 1.61597C21.0519 2.24206 21.4829 3.07347 21.5767 3.96393L21.62 4.38893L21.7012 5.29893C21.7771 6.24193 21.8334 7.26993 21.8334 8.25293C21.8334 9.23593 21.7771 10.2639 21.7012 11.2069L21.62 12.1169C21.6059 12.2629 21.5918 12.4039 21.5767 12.5419C21.4828 13.4325 21.0517 14.2641 20.3592 14.8902C19.6666 15.5163 18.757 15.8969 17.7904 15.9649L16.9021 16.0279L15.9271 16.0899L14.8849 16.1469L13.7972 16.1949C12.8654 16.2323 11.9328 16.2516 11.0001 16.2529C10.0674 16.2516 9.13476 16.2323 8.20292 16.1949L7.11525 16.1469L6.07416 16.0899L5.09916 16.0279L4.20866 15.9649C3.24228 15.8967 2.33293 15.516 1.64059 14.8899C0.948258 14.2638 0.517287 13.4324 0.423498 12.5419L0.380165 12.1169L0.298915 11.2069C0.21608 10.2241 0.171996 9.23875 0.166748 8.25293C0.166748 7.26993 0.223081 6.24193 0.298915 5.29893L0.380165 4.38893C0.394248 4.24293 0.408331 4.10193 0.423498 3.96393C0.51725 3.07363 0.948066 2.24234 1.64018 1.61627C2.3323 0.990201 3.24139 0.609432 4.20758 0.54093L5.097 0.47693L6.072 0.41593L7.11417 0.35893L8.20183 0.31093C9.13404 0.273563 10.067 0.254225 11.0001 0.25293ZM11.0001 2.25293C10.1063 2.25293 9.18658 2.27493 8.29175 2.30893L7.23225 2.35593L6.215 2.41093L5.2595 2.47093L4.38416 2.53393C3.92411 2.56406 3.49046 2.74358 3.1601 3.04066C2.82974 3.33774 2.62399 3.73319 2.57933 4.15693C2.45258 5.36593 2.33341 6.87093 2.33341 8.25293C2.33341 9.63493 2.45258 11.1399 2.57933 12.3489C2.67142 13.2209 3.42108 13.8989 4.38416 13.9719L5.2595 14.0339L6.215 14.0939L7.23225 14.1499L8.29175 14.1969C9.18658 14.2309 10.1063 14.2529 11.0001 14.2529C11.8938 14.2529 12.8136 14.2309 13.7084 14.1969L14.7679 14.1499L15.7852 14.0949L16.7407 14.0349L17.616 13.9719C18.0761 13.9418 18.5097 13.7623 18.8401 13.4652C19.1704 13.1681 19.3762 12.7727 19.4208 12.3489C19.5476 11.1399 19.6667 9.63493 19.6667 8.25293C19.6667 6.87093 19.5476 5.36593 19.4208 4.15693C19.3762 3.73319 19.1704 3.33774 18.8401 3.04066C18.5097 2.74358 18.0761 2.56406 17.616 2.53393L16.7407 2.47193L15.7852 2.41193L14.7679 2.35593L13.7084 2.30893C12.8061 2.2731 11.9032 2.25443 11.0001 2.25293ZM8.83342 5.82793C8.83335 5.73019 8.85914 5.63392 8.90856 5.54748C8.95798 5.46105 9.02953 5.38706 9.11698 5.33196C9.20443 5.27687 9.30514 5.24232 9.41035 5.23134C9.51556 5.22035 9.62209 5.23326 9.72066 5.26893L9.80841 5.30893L14.3584 7.73293C14.449 7.78119 14.5257 7.84892 14.5819 7.93037C14.638 8.01182 14.6721 8.10458 14.6811 8.20078C14.6902 8.29698 14.6739 8.39377 14.6338 8.48293C14.5936 8.57209 14.5308 8.65099 14.4505 8.71293L14.3584 8.77293L9.80841 11.1979C9.71672 11.2469 9.61344 11.2745 9.50757 11.2783C9.40169 11.282 9.29643 11.2618 9.20094 11.2194C9.10546 11.177 9.02265 11.1137 8.95973 11.035C8.8968 10.9563 8.85567 10.8646 8.83991 10.7679L8.83342 10.6779V5.82793Z" fill="#25BBC5" style="fill:#25BBC5;fill:color(display-p3 0.1451 0.7333 0.7725);fill-opacity:1;"/>
</svg>
